<?xml version="1.0" encoding="UTF-8"?>
<svg width="28px" height="28px" viewBox="0 0 28 28" version="1.1" xmlns="http://www.w3.org/2000/svg" xmlns:xlink="http://www.w3.org/1999/xlink">
    <!-- Generator: Sketch 52 (66869) - http://www.bohemiancoding.com/sketch -->
    <title>Group 10</title>
    <desc>Created with Sketch.</desc>
    <g id="Home" stroke="none" stroke-width="1" fill="none" fill-rule="evenodd">
        <g id="Desktop---Home" transform="translate(-1262.000000, -5435.000000)">
            <g id="Footer" transform="translate(0.000000, 5409.000000)">
                <g id="Group-10" transform="translate(1256.000000, 20.000000)">
                    <rect id="Rectangle" x="0" y="0" width="40" height="40"></rect>
                    <path d="M34,20.0855588 C34,12.3063137 27.7319922,6 20,6 C12.2680078,6 6,12.3063137 6,20.0855588 C6,27.1160683 11.1195977,32.943308 17.8125,34 L17.8125,24.1571656 L14.2578125,24.1571656 L14.2578125,20.0855588 L17.8125,20.0855588 L17.8125,16.9823341 C17.8125,13.4521409 19.9026016,11.5021714 23.1005078,11.5021714 C24.6322227,11.5021714 26.234375,11.77728 26.234375,11.77728 L26.234375,15.2436479 L24.4690078,15.2436479 C22.7298633,15.2436479 22.1875,16.3294189 22.1875,17.4433335 L22.1875,20.0855588 L26.0703125,20.0855588 L25.4496094,24.1571656 L22.1875,24.1571656 L22.1875,34 C28.8804023,32.943308 34,27.1160683 34,20.0855588" id="Fill-1" fill="#585D72"></path>
                </g>
            </g>
        </g>
    </g>
</svg>