<?xml version="1.0" encoding="UTF-8"?>
<svg width="28px" height="28px" viewBox="0 0 28 28" version="1.1" xmlns="http://www.w3.org/2000/svg" xmlns:xlink="http://www.w3.org/1999/xlink">
    <!-- Generator: Sketch 55.2 (78181) - https://sketchapp.com -->
    <title>Linkedin</title>
    <desc>Created with Sketch.</desc>
    <g id="About-Us" stroke="none" stroke-width="1" fill="none" fill-rule="evenodd">
        <g id="Linkedin" transform="translate(0.000000, -0.000000)">
            <path d="M-1.42108547e-14,25.7403863 C-1.42108547e-14,26.8370146 0.911535255,27.7265432 2.03602388,27.7265432 L25.5157257,27.7265432 C26.6401773,27.7265432 27.5517496,26.8370146 27.5517496,25.7403863 L27.5517496,1.98615693 C27.5517496,0.889158109 26.6401773,7.10542736e-14 25.5157257,7.10542736e-14 L2.03602388,7.10542736e-14 C0.911535255,7.10542736e-14 -1.42108547e-14,0.889158109 -1.42108547e-14,1.98615693 L-1.42108547e-14,25.7403863 L-1.42108547e-14,25.7403863 Z" id="path14" fill="#585D72" fill-rule="nonzero" transform="translate(13.775875, 13.863272) scale(-1, 1) rotate(-180.000000) translate(-13.775875, -13.863272) "></path>
            <path d="M8.35178802,4.65437222 L8.35178802,17.1744594 L4.19034283,17.1744594 L4.19034283,4.65437222 L8.35178802,4.65437222 Z M6.2710469,18.8838658 C7.72222703,18.8838658 8.62546348,19.845268 8.62546348,21.0467429 C8.59841825,22.275263 7.72222703,23.2099905 6.29857376,23.2099905 C4.87506867,23.2099905 3.94434242,22.275263 3.94434242,21.0467429 C3.94434242,19.845268 4.84739362,18.8838658 6.24392758,18.8838658 L6.27097281,18.8838658 L6.2710469,18.8838658 Z" id="path28" fill="#FFFFFF" transform="translate(6.284903, 13.932181) scale(-1, 1) rotate(-180.000000) translate(-6.284903, -13.932181) "></path>
            <path d="M10.6544482,10.3961107 L14.8158563,10.3961107 L14.8158563,17.3878573 C14.8158563,17.7620447 14.8429016,18.1358616 14.9527867,18.40335 C15.2536185,19.1509837 15.9383443,19.9252923 17.0879517,19.9252923 C18.593778,19.9252923 19.1961456,18.7771669 19.1961456,17.0940646 L19.1961456,10.3961107 L23.3572203,10.3961107 L23.3572203,17.574951 C23.3572203,21.4205598 21.3041912,23.2099905 18.5662882,23.2099905 C16.3213122,23.2099905 15.3357545,21.9551661 14.7881813,21.1004629 L14.8159675,21.1004629 L14.8159675,22.9161978 L10.6544482,22.9161978 C10.7091685,21.7413977 10.6544482,10.3961107 10.6544482,10.3961107 L10.6544482,10.3961107 Z" id="path30" fill="#FFFFFF" transform="translate(17.005834, 16.803051) scale(-1, 1) rotate(-180.000000) translate(-17.005834, -16.803051) "></path>
        </g>
    </g>
</svg>