<?xml version="1.0" encoding="UTF-8"?>
<svg width="120px" height="41px" viewBox="0 0 120 41" version="1.1" xmlns="http://www.w3.org/2000/svg" xmlns:xlink="http://www.w3.org/1999/xlink">
    <!-- Generator: Sketch 58 (84663) - https://sketch.com -->
    <title>Logo</title>
    <desc>Created with Sketch.</desc>
    <g id="Home" stroke="none" stroke-width="1" fill="none" fill-rule="evenodd">
        <g id="Desktop---Home" transform="translate(-200.000000, -19.000000)">
            <g id="Nav-Bar" transform="translate(200.000000, 0.000000)">
                <g id="Logo" transform="translate(0.000000, 19.000000)">
                    <path d="M19.8057473,15.7235233 C23.4349566,15.7235233 25.4507705,18.0973856 25.4507705,21.3821815 C25.4507705,22.2693237 25.3562589,22.8924109 25.2849101,23.3000599 L17.244445,23.3000599 C17.244445,24.2110875 18.0979333,25.6496609 20.7786775,25.6496609 C21.7983984,25.6496609 23.3877008,25.5058788 24.7394217,25.0026884 L24.7394217,27.6879063 C23.3399798,28.2632228 22.1776543,28.5271838 20.5410961,28.5271838 C16.0584915,28.5271838 13.7338403,25.9136219 13.7338403,22.0535095 C13.7338403,18.264959 16.2483519,15.7235233 19.8057473,15.7235233 Z M46.2901473,15.7473239 C48.0215891,15.7473239 49.396938,16.5385487 50.061031,17.6657666 L50.2036357,17.6657666 C50.3457752,17.162012 50.5592636,16.682707 50.7727519,16.0830349 L52.9552636,16.0830349 L52.9552636,23.9236267 C52.9552636,25.554129 53.2160077,25.8654845 53.832845,25.8654845 C53.9986124,25.8654845 54.1643798,25.8415992 54.3306124,25.8177138 L54.3306124,28.1672207 C53.8564729,28.3591496 53.1687519,28.5033079 52.5991705,28.5033079 C51.1761008,28.5033079 50.3457752,27.8559593 50.2036357,26.6327299 L50.0374031,26.6327299 C49.3733101,27.8798446 47.8789845,28.5271932 46.0766589,28.5271932 C42.7322868,28.5271932 40.5502403,25.9136313 40.5502403,22.197207 C40.5502403,18.3847712 42.8507984,15.7473239 46.2901473,15.7473239 Z M59.0707798,10.9738331 L59.0707798,16.9224065 L59.2134775,16.9224065 C59.8774775,16.1789524 60.9445473,15.7473239 62.2494775,15.7473239 C65.5697566,15.7473239 68.1078961,18.2410831 68.1078961,22.0534249 C68.1078961,25.7699432 65.9494775,28.5271932 62.5810124,28.5271932 C60.7786868,28.5271932 59.2842682,27.6878216 58.5966403,26.4412712 L58.4304077,26.4412712 C58.1932915,27.1841611 58.0746868,27.6640304 57.8848264,28.1915762 L55.6787798,28.1915762 L55.6787798,10.9738331 L59.0707798,10.9738331 Z M80.822324,15.7235233 C84.4515333,15.7235233 86.4673473,18.0973856 86.4673473,21.3821815 C86.4673473,22.2693237 86.3723705,22.8924109 86.3010217,23.3000599 L78.2605566,23.3000599 C78.2605566,24.2110875 79.1145101,25.6496609 81.7947891,25.6496609 C82.8145101,25.6496609 84.4038124,25.5058788 85.7559984,25.0026884 L85.7559984,27.6879063 C84.3560915,28.2632228 83.194231,28.5271838 81.5572077,28.5271838 C77.0750682,28.5271838 74.750417,25.9136219 74.750417,22.0535095 C74.750417,18.264959 77.2644636,15.7235233 80.822324,15.7235233 Z M72.8835612,10.9737767 L72.9071891,23.6839648 C72.9071891,25.3139969 73.0493287,25.5541666 73.6420729,25.5541666 C73.8083054,25.5541666 73.974538,25.5298111 74.1403984,25.5059258 L74.1403984,28.1672583 C73.6661659,28.3591872 73.2150961,28.5033455 72.4565845,28.5033455 C70.4166775,28.5033455 69.4914682,27.5441712 69.4914682,24.6670244 L69.4914682,10.9737767 L72.8835612,10.9737767 Z M27.7408543,15.7473333 C29.1643891,15.7473333 29.9942496,16.4186613 30.1363891,17.8333494 L30.2789938,17.8333494 C30.9430868,16.6583609 32.4610403,15.7712187 34.1925752,15.7712187 C37.3229938,15.7712187 39.2442961,17.6896613 39.2442961,21.7894733 L39.2442961,28.1433448 L35.8526682,28.1433448 L35.8526682,22.0773196 C35.8526682,20.3270145 35.2835519,18.8646499 33.5284822,18.8646499 C31.8442961,18.8646499 30.8004822,20.0391682 30.8004822,22.0291728 L30.7768543,28.1433448 L27.3852264,28.1433448 L27.3852264,20.3270145 C27.3852264,18.6966063 27.124017,18.3847806 26.507645,18.3847806 C26.3418775,18.3847806 26.175645,18.4086659 26.0094124,18.4330214 L26.0094124,16.0830444 C26.483645,15.8911155 27.171738,15.7473333 27.7408543,15.7473333 Z M46.9068915,18.768629 C45.2463333,18.768629 44.0367519,20.0391588 44.0367519,22.1494363 C44.0367519,24.2110969 45.2227054,25.5297735 46.9305194,25.5297735 C48.7564729,25.5297735 49.8002868,24.2110969 49.8002868,22.1494363 C49.8002868,20.0391588 48.6856822,18.768629 46.9068915,18.768629 Z M61.7507798,18.8885258 C59.9484543,18.8885258 58.8573845,20.0391588 58.8573845,22.1494363 C58.8573845,24.2110969 59.8774775,25.4099707 61.7271519,25.4099707 C63.4349659,25.4099707 64.6209194,24.2110969 64.6209194,22.1494363 C64.6209194,20.0391588 63.411338,18.8885258 61.7507798,18.8885258 Z M19.7348636,18.600576 C18.3354217,18.600576 17.2203519,19.6318765 17.2203519,20.9744384 L21.9877938,20.9744384 C22.0118868,20.8784269 22.0118868,20.7103833 22.0118868,20.6149361 C22.0118868,19.607521 21.3950496,18.600576 19.7348636,18.600576 Z M80.7509752,18.600576 C79.3515333,18.600576 78.2369287,19.6318765 78.2369287,20.9744384 L83.0043705,20.9744384 C83.0279984,20.8784269 83.0279984,20.7103833 83.0279984,20.6149361 C83.0279984,19.607521 82.4111612,18.600576 80.7509752,18.600576 Z" id="Combined-Shape" fill="#020A2C"></path>
                    <path d="M112.986287,11.0115136 C117.018845,11.0115136 119.74638,12.7136719 119.74638,16.6220251 C119.74638,18.9720962 118.821171,20.506587 117.042473,21.2494769 L117.042473,21.3936352 C118.987403,22.8799792 119.912147,25.0141421 119.912147,28.2507911 L116.022287,28.2507911 C116.022287,25.6133439 115.26331,23.599454 113.460984,22.2086512 L109.618287,22.2086512 L109.618287,28.2269058 L106.226659,28.2269058 L106.226659,11.0115136 L112.986287,11.0115136 Z M92.250017,10.9633386 L92.2741101,18.0606643 L100.361831,18.0606643 L100.385459,10.9633386 L103.777552,10.9633386 L103.777552,28.2268776 L100.385459,28.2268776 L100.385459,21.129646 L92.250017,21.129646 L92.250017,28.2268776 L88.8583891,28.2268776 L88.8583891,10.9633386 L92.250017,10.9633386 Z M113.152519,14.2481627 L109.618287,14.2481627 L109.618287,19.1157843 L113.389636,19.1157843 C115.049822,19.1157843 116.022287,18.2525274 116.022287,16.6220251 C116.022287,14.9438462 114.836798,14.2481627 113.152519,14.2481627 Z" id="Combined-Shape" fill="#C7F3E5"></path>
                    <path d="M21.6394589,38.7660499 C21.9992729,39.5353641 21.6740636,40.4598388 20.907831,40.8258297 C20.143924,41.1911622 19.2295984,40.859871 18.8700636,40.0888641 C18.5095054,39.3164466 18.835831,38.3932884 19.5993659,38.0262632 C20.3655054,37.6603664 21.2768543,37.992504 21.6394589,38.7660499 Z M25.6559798,38.4169104 C25.9987705,39.1495503 25.6892822,40.0283233 24.9626775,40.37372 C24.2354217,40.7224081 23.3680729,40.4050343 23.024631,39.6726765 C22.6830496,38.9415411 22.992445,38.0626742 23.7202589,37.7154907 C24.4459333,37.3669907 25.3132822,37.6844586 25.6559798,38.4169104 Z M17.470231,38.1838781 C17.8419519,38.9830019 17.5057659,39.9370983 16.7151612,40.3162542 C15.9245566,40.6921189 14.9807426,40.3488849 14.6070682,39.5517359 C14.2352543,38.7559033 14.5715333,37.7985157 15.3633473,37.4240616 C16.1546031,37.0446235 17.098045,37.3864469 17.470231,38.1838781 Z M13.4191054,36.4082019 C13.841338,37.3082272 13.4589194,38.3856056 12.5670124,38.812062 C11.673431,39.2389886 10.6085008,38.8522157 10.1870124,37.9521905 C9.765431,37.0483097 10.149431,35.9712134 11.0406868,35.544945 C11.9316636,35.1179244 12.997524,35.5044152 13.4191054,36.4082019 Z M9.46961705,33.1536106 C9.9386403,34.1593331 9.51426821,35.3598056 8.51975658,35.8356313 C7.52366356,36.3082597 6.33808216,35.8780418 5.86738449,34.8718492 C5.39938449,33.8699822 5.82347751,32.6685694 6.81771007,32.1947184 C7.81371007,31.7187047 8.99910542,32.1482643 9.46961705,33.1536106 Z M6.37641705,28.3483166 C6.90590542,29.4835276 6.42497519,30.8360574 5.3030217,31.3718785 C4.18218449,31.9090161 2.84395193,31.4254794 2.31241705,30.2882937 C1.78395193,29.1569382 2.26060309,27.8005528 3.38469612,27.2634152 C4.50739379,26.729945 5.84627751,27.2133877 6.37641705,28.3483166 Z M4.91052868,22.1932198 C5.51880775,23.4931831 4.96811007,25.0468574 3.68113333,25.6624216 C2.39229612,26.2771395 0.856296118,25.7207244 0.247737978,24.4196327 C-0.360541091,23.1192932 0.189877513,21.5649606 1.47676123,20.9490203 C2.76597054,20.3357129 4.3026217,20.8911877 4.91052868,22.1932198 Z M5.69124496,15.2803941 C6.36659379,16.7257382 5.75561705,18.4481143 4.3262217,19.129034 C2.89868682,19.8115524 1.19515193,19.1951418 0.520175188,17.7508322 C-0.155359696,16.3046418 0.456547281,14.5828299 1.88352402,13.9017221 C3.31124496,13.219956 5.01691937,13.8358964 5.69124496,15.2803941 Z M9.33563565,8.45598174 C10.0596357,10.0046721 9.40475193,11.849484 7.87517054,12.5793969 C6.3466124,13.3103441 4.51796123,12.6485138 3.79684496,11.1007638 C3.07396123,9.55630513 3.72754263,7.70980054 5.25758914,6.97857119 C6.78614728,6.24762394 8.61637984,6.91227532 9.33563565,8.45598174 Z M33.2074775,6.48702256 C34.737617,5.75899045 36.5644077,6.42044458 37.2878496,7.96716018 C38.0089659,9.51453403 37.3546403,11.3580294 35.8258961,12.0913276 C34.293524,12.820018 32.4697101,12.1577175 31.7460822,10.6131648 C31.0233845,9.0662611 31.677338,7.21834596 33.2074775,6.48702256 Z M30.994017,3.64500788 C31.7151333,5.19238174 31.0608077,7.03587715 29.5321566,7.76926935 C27.9996915,8.49786568 26.1758775,7.83556522 25.4522496,6.29101247 C24.7295519,4.7441088 25.3835054,2.89619366 26.913645,2.16487027 C28.4437845,1.43683816 30.2705752,2.09829229 30.994017,3.64500788 Z M15.6402868,3.44688197 C16.3863333,5.04512967 15.7101473,6.95162967 14.1283798,7.70768472 C12.5464264,8.46251729 10.6603798,7.7788705 9.91293798,6.18146912 C9.16754263,4.58228105 9.84307751,2.67343013 11.4230775,1.92038426 C13.0041008,1.16461132 14.8896822,1.84703564 15.6402868,3.44688197 Z M23.3261845,1.77602853 C24.0473008,3.32340238 23.3929752,5.16689779 21.864324,5.90019596 C20.3318589,6.62888632 18.508045,5.96658587 17.784417,4.42203311 C17.0617194,2.87503541 17.7156729,1.02712027 19.2458124,0.295890912 C20.7759519,-0.432141199 22.6027426,0.229218893 23.3261845,1.77602853 Z" id="Combined-Shape" fill="#C7F3E5"></path>
                </g>
            </g>
        </g>
    </g>
</svg>