<?xml version="1.0" encoding="UTF-8"?>
<svg width="28px" height="23px" viewBox="0 0 28 23" version="1.1" xmlns="http://www.w3.org/2000/svg" xmlns:xlink="http://www.w3.org/1999/xlink">
    <!-- Generator: Sketch 52 (66869) - http://www.bohemiancoding.com/sketch -->
    <title>Group 12</title>
    <desc>Created with Sketch.</desc>
    <g id="Home" stroke="none" stroke-width="1" fill="none" fill-rule="evenodd">
        <g id="Desktop---Home" transform="translate(-1366.000000, -5437.000000)">
            <g id="Footer" transform="translate(0.000000, 5409.000000)">
                <g id="Group-12" transform="translate(1360.000000, 20.000000)">
                    <rect id="Rectangle" x="0" y="0" width="40" height="40"></rect>
                    <path d="M14.805776,31 C25.372304,31 31.150608,22.1520785 31.150608,14.4798649 C31.150608,14.228445 31.145568,13.9781571 31.134144,13.7292276 C32.255712,12.9097639 33.230784,11.8872171 34,10.7229424 C32.970608,11.1850299 31.862928,11.4965597 30.700928,11.6369292 C31.887008,10.9183278 32.797568,9.78088179 33.226976,8.42518383 C32.116832,9.09024107 30.887856,9.57394994 29.57936,9.83442597 C28.531152,8.70592289 27.038192,8 25.386192,8 C22.213456,8 19.640704,10.6003455 19.640704,13.8058648 C19.640704,14.261613 19.691216,14.7045694 19.789664,15.1297532 C15.01544,14.887163 10.78184,12.5766126 7.9488,9.06341238 C7.454992,9.92125132 7.170848,10.9183278 7.170848,11.9816269 C7.170848,13.9961561 8.185008,15.7744342 9.727136,16.8147536 C8.784992,16.7854344 7.899632,16.5237132 7.125376,16.0883413 C7.124032,16.1125663 7.124032,16.1369046 7.124032,16.1623749 C7.124032,18.9747463 9.104528,21.3223134 11.732832,21.8546988 C11.250448,21.9873707 10.74264,22.0589139 10.21848,22.0589139 C9.848432,22.0589139 9.488464,22.0218971 9.138576,21.9542027 C9.869936,24.2610174 11.990544,25.9396785 14.505168,25.9869966 C12.538672,27.544306 10.061904,28.4723297 7.370432,28.4723297 C6.906864,28.4723297 6.44968,28.4456142 6,28.3919568 C8.542512,30.0386951 11.561136,31 14.805776,31" id="Fill-1" fill="#585D72"></path>
                </g>
            </g>
        </g>
    </g>
</svg>